<?xml version="1.0" encoding="utf-8"?>
<!-- Generator: Adobe Illustrator 28.0.0, SVG Export Plug-In . SVG Version: 6.00 Build 0)  -->
<svg version="1.1" id="Camada_1" xmlns="http://www.w3.org/2000/svg" xmlns:xlink="http://www.w3.org/1999/xlink" x="0px" y="0px"
	 viewBox="0 0 493.9 900.3" style="enable-background:new 0 0 493.9 900.3;" xml:space="preserve">
<g>
	<path d="M144.2,129.4c0-11.7,0-22.4,0-33c0.1-22.6,12.9-35.5,35.2-35.5c45,0,90,0,135.1,0c22,0,35,12.9,35.1,34.9
		c0.1,10.9,0,21.9,0,33.7c16.5,0,32.3-0.1,48,0.1c7.2,0.1,14.6-0.1,21.6,1.4c23.3,4.9,39.2,24.6,41,49.4c0.2,2.4,0.1,4.8,0.1,7.2
		c0,198,0,396,0.1,594c0,22.1-7.4,40.2-27.3,50.9c-7.7,4.1-17.3,6.6-26,6.7c-106.9,0.4-213.9,0.4-320.8,0.2
		c-29,0-50.9-21.3-52.9-50.8c-0.2-2.4-0.1-4.8-0.1-7.2c0-198,0-396,0-594c0-29,14.3-49.6,39.8-56c6.9-1.7,14.3-1.7,21.5-1.8
		C111,129.3,127.3,129.4,144.2,129.4z M55.7,484.8c0,99.1,0,198.3,0,297.4c0,22.9,11.8,35,34.4,35c104.5,0,209,0,313.6,0
		c22.7,0,34.5-12,34.5-34.8c0-198.5,0-397.1,0-595.6c0-23.1-12.1-35.2-35.2-35.1c-25.7,0.1-51.4,0.6-77.2,0.6
		c-77.4-0.1-154.9-0.4-232.3-0.6c-26.6-0.1-37.8,11-37.8,37.4C55.7,287.6,55.7,386.2,55.7,484.8z M327.3,128.4
		c0-11.3,0.1-21.7,0-32.1c-0.1-10.3-3-13.2-13.5-13.2c-28.4-0.1-56.8,0-85.2,0c-16.6,0-33.2,0.1-49.9,0c-6.4,0-11.6,2.1-11.9,9
		c-0.5,12-0.1,24-0.1,36.3C220.4,128.4,273.3,128.4,327.3,128.4z"/>
	<path d="M378.2,350.9H115.7c-17.9,0-32.4,14.5-32.4,32.4v362.1c0,17.9,14.5,32.4,32.4,32.4h262.4c17.9,0,32.4-14.5,32.4-32.4V383.3
		C410.5,365.4,396,350.9,378.2,350.9z M223,676.2c-0.5-0.3-1-0.5-1.5-0.8c9.7-22.8,19.5-45.6,29.2-68.4c1.2-2.7,2.3-5.4,3.5-8.1
		c5.7-13.5,1.6-19.6-13.3-19.7c-22.2-0.1-44.5,0-66.7,0c-2.6,0-5.2,0-9.9,0c37.2-43.3,73-85.1,108.8-126.8c0.4,0.2,0.7,0.3,1.1,0.5
		c-0.7,2-1.4,4-2.2,6c-11.1,25.8-22.3,51.5-33.4,77.3c-5.3,12.3-0.8,19,12.8,19.1c22.8,0.1,45.5,0,68.3,0c2.6,0,5.2,0,10,0
		C293.2,596.5,258.1,636.4,223,676.2z"/>
</g>
</svg>
