<?xml version="1.0" encoding="UTF-8"?>
<svg version="1.1" viewBox="0 0 2048 2048" width="640" height="640" xmlns="http://www.w3.org/2000/svg">
<path transform="translate(857,289)" d="m0 0h11l9 6 6 8 6 13 5 18 5 29 4 37v8l8-6 12-10 18-11 11-4h16l8 4 7 8 4 11v17l-4 16-5 13-9 17-10 13-11 12-14 11-10 7-13 6-15 4-17 2 4 26 8 64 2 1 2-5 8-15 12-19 10-14 9-10 7-8 10-9 12-7 11-3 12 2 9 7 5 10 2 14-1 14-4 14-8 16-9 13-11 12-13 12-17 13-20 13-9 4-10 2h-5l1 20 2 14 12-12 7-8 8-8 11-8 10-5 12-3 10 1 9 4 6 5 6 12 2 10v14l-3 17-5 16-5 12-10 16-9 11-16 16-13 8-21 7 1 10 3 16 2 5 7-1 5-6 16-24 9-11 14-14 14-10 8-5 3-10 6-29 6-16 7-13 8-9 9-5h11l7 3 7 7 6 13 5 19 4 29 1 12 12 1 14 4 16 8 11 8 10 9 12 12 5 6 2-3 10-30v-5l-20-9-11-7-10-9-10-10-9-13-9-17-5-17-3-19v-9l3-15 6-11 8-8 10-4h16l11 4 12 7 12 11 8 8 11 15 12 19 2-2 11-27 2-7-6-8-11-13-12-17-13-21-11-21-8-21-5-16-2-12 1-12 4-9 5-7 7-4 5-1 14 1 16 8 13 10 14 14 10 14 10 19 6 15 3-4 14-26 8-14 3-10-8-14-5-11-6-19-4-20-3-24-1-15v-17l2-17 4-15 6-11 7-7 10-4h10l10 4 11 9 10 12 8 15 8 23 1 7h2l2-6 10-17 13-19 10-13 12-14 11-12 15-14 15-11 12-5 5-1h10l9 3 8 7 4 9 1 4v19l-5 16-9 17-8 11-11 13-14 13-11 9-12 10h-2v2l15-4 25-4h27l10 3 6 4 5 6 2 4v9l-5 10-9 8-11 7-19 9-20 7-24 7-30 7-26 4-12 1h-21l-2 5-30 60-7 17 15-9 16-9 19-8 19-5 13-2h28l15 4 13 7 8 8 5 10 1 4v13l-4 12-10 14-7 7-11 8-15 9-20 10 1 5 8 19 1 2 4-2 11-9 7-7 14-11 20-13 13-6 9-2h14l10 4 8 8 4 8 2 11-1 12-4 14-7 13-7 9-14 14-17 13-7 5 5 5 13 10 7 7 7 10 5 10 2 6 1 11-2 9-4 8-6 7-10 6-13 4-14 2h-18l-22-3-14-4-12-5-11-8-9-9-11-20-4-1-6 5-11 17-3 5 1 6 4 13v17l-1 5 31-3h15l18 2 12 3 12 6 9 7 7 10 2 6v17l-4 9-4 6-7 8-14 9-14 5-18 4-9 1h-10l13 13 5 10 1 10-3 10-7 12-7 8-15 10-19 8-18 5-26 4h-29l-16-3-17-3-4 1-5 10-9 29-2 6 21-7 15-3h22l12 3 16 8 7 5 3 1 1-5 7-13 8-9 10-4h15l10 4 11 8 8 8 10 13 8 16 6 17 4 23 1 1 11-1 25-12 6-4-2-5-8-16-6-15-5-21-2-18v-10l3-21 6-16 7-9 8-7 8-3h14l9 4 7 5 9 12 7 16 4 17 2 22v17l-2 12 12-6 20-14 5-4h2l-4-10-7-14-6-16-5-23-2-17v-25l3-23 5-16 5-10 7-7 8-4 3-1h11l10 5 8 7 8 13 5 12 3 14 1 8v48l-1 17 11-8 16-13 1-4-8-16-8-17-6-18-2-9-1-21 2-17 4-14 8-15 8-10 9-7 12-5 12-1 9 2 10 6 6 7 6 13 2 8v34l-2 17 4-2 5-17 12-23 12-17 9-11 11-12 13-11 14-9 11-4h12l10 5 6 7 4 9 1 4v18l-4 17-5 13-6 11-10 13-9 10-17 13-11 7-17 9-21 8-16 6-4 4 16-2 13-2 12-1h15l22 2 17 4 16 8 10 9 5 10 1 8-2 9-6 9-9 7-11 5-15 4-8 1h-47l-39-3-26-4-17-5-4 2-8 8-3 5h18l31 3 21 5 16 8 9 7 8 9 4 8 1 4v11l-4 11-9 10-10 5-17 4h-19l-19-3-21-6-19-8-18-10-14-10-9-7-5 2-20 16v1l26 5 14 5 14 8 10 9 6 10 2 5v17l-6 12-9 9-12 6-15 4-14 2 8 16 2 8v13l-3 12-8 15-10 13-4 5-5 16-16 62-12 50-18 71-16 63-20 80-18 70-38 152-11 46-4 11-4 6-8 8-16 11-15 9-27 13-25 9-23 7-27 6-43 7-44 4h-67l-36-3-35-5-31-6-25-7-22-8-21-9-20-12-14-10-11-9-8-10-5-12-15-52-11-40-17-58-16-58-12-42-18-64-15-53-15-52-16-57-15-53-10-36-8-31-4-17-11-15-8-15-3-11v-13l4-13 8-11 11-11 15-11 10-6-7-14-1-8 3-9 9-10 13-8 18-6 23-4 8-1h9l-4-7-9-11-11 3-18 6-24 5-9 1h-23l-15-3-14-5-8-6-7-11-3-7v-15l4-10 7-9 10-9 15-7 16-4 13-1h19l-8-16-20-35-4 2-10 14-8 10-13 13-14 11-15 8-9 3-5 1h-19l-11-4-7-5-7-10-3-8-1-12 3-14 5-12 7-11 8-9 11-9 4-3-1-3-17-12-14-11-18-18-12-16-9-17-6-18-2-10v-16l3-12 7-14 10-10 10-5 5-1h14l12 3 12 6 14 11 14 14 15 20 14 22 4 6v2l3-3 9-19 8-16 10-13 9-9 14-7 10-1 8 2 9 6 6 8 5 12 3 13v33l-3 18-6 18-6 10-8 10-7 6-10 4-12 3-4 4-1 4 4 7 12 15 14 19 8 11 9 11 1-1 4-44 4-34 5-24 5-13 6-9 7-6 4-2h10l7 3 8 7 7 11 7 16 6 24 3 20v23l-2 21 16-7 5-2 6-18 6-10 9-9 13-8 14-4h25l18 4 4 1-1-8-3-9-28-6-22-6-24-9-20-9-20-12-13-10-10-9-3-3v-2h-2l-10-13-6-12-2-8v-12l3-10 7-9 9-6 10-4 17-3h10l-4-4-17-12-12-10-9-11-6-7-8-13-5-11-4-13-1-6v-13l3-12 6-10 8-7 11-5 9-2h14l15 3 18 6 17 9 19 13 7 5-1-31h-13l-19-2-16-6-13-7-11-9-10-9-7-8-13-17-8-13-7-16-4-14v-18l3-9 6-9 8-6 9-4 10-2h9l13 4 16 8 11 9 8 7 9 11 14 21v2l3-1v-64l-13 2-13 1h-47l-14-4-21-10-13-10-9-10-9-15-5-16-2-15 1-17 4-16 5-9 9-11 9-6 8-3 5-1h10l13 4 11 6 11 8 3 3 3 1 1-11 6-28 8-27 7-17 8-15 8-10 6-5zm382 386-4 7-4 13 6-1 21-10-1-2-12-5zm36 100-6 4 4 16 4 13 4-1 7-7 4-6v-5l-10-13-1-1zm-425 45 4 4 15 10 5 4h2v-11l-3-7zm208 20-8 15-7 8-12 6v31l3 3 32-32 6-5 1-5-12-20zm120 14m-1 1 1 3zm20 68-3 2 2 4 4-1 1-3zm48 2-9 6-6 9-13 27-5 12v3l4-1 19-9 20-7 22-6 13-3-4-4-15-8-10-8-11-11zm-138 14-11 6-26 17-16 10-7 24-5 17v9l4 1 10-11 7-8 15-15 10-7 16-8 5-3 2-10v-15l-2-7zm42 71v12l4 1 3-7-3-5zm-292 46-1 39-4 16-6 12-4 5-8 5-20 7-4 2-1 5 2 4 12-1 22-4 40-6 20-2 4-1 2-19 7-14 13-13-3-5-8-8-14-11-6-3-28-5zm-87 1-17 5-9 6-2 2 1 7 8 11 9 10 5 1 3-15 3-19v-8z" fill="#72A26B"/>
<path transform="translate(1427,1179)" d="m0 0 6 2 8 8 3 2v2l5 2 6 5 5 4 20 9 13 4 11 3 10 2h7l1 4 5 8 4 13v13l-3 12-8 15-10 13-4 5-5 16-16 62-12 50-18 71-16 63-20 80-18 70-38 152-11 46-4 11-4 6-8 8-16 11-15 9-27 13-25 9-23 7-27 6-43 7-44 4h-67l-36-3-35-5-31-6-25-7-22-8-21-9-20-12-14-10-11-9-8-10-5-12-15-52-11-40-17-58-16-58-12-42-18-64-15-53-15-52-16-57-15-53-10-36-8-31-4-17-11-15-8-15-3-11v-13l4-13 8-11 11-11 15-11 10-6 3-1v3l8 1 19 8 10 3-2 5-4 4h-2l-3 9v15l6 12 9 10 14 10 18 10 17 7 40 13 32 8 25 5 46 7 40 5 49 4 43 2h77l48-2 49-4 48-6 41-7 40-9 25-7 25-8 21-9 24-3 10-4 6-5 6-10 1-3v-20l-5-13-6-10-3-3v-2l-3-1v-2l-4-2-8-6-16-6-5-2-1-1v-5l8-5z" fill="#E6B268"/>
<path transform="translate(1439,304)" d="m0 0h10l9 3 8 7 4 9 1 4v19l-5 16-9 17-8 11-11 13-14 13-11 9-12 10h-2v2l15-4 25-4h27l10 3 6 4 5 6 2 4v9l-5 10-9 8-11 7-19 9-20 7-24 7-30 7-26 4-12 1h-21l-2 5-30 60-7 17 15-9 16-9 19-8 19-5 13-2h28l15 4 13 7 8 8 5 10 1 4v13l-4 12-10 14-7 7-11 8-15 9-20 10 1 5 8 19 1 2 4-2 11-9 7-7 14-11 20-13 13-6 9-2h14l10 4 8 8 4 8 2 11-1 12-4 14-7 13-7 9-14 14-17 13-7 5 5 5 13 10 7 7 7 10 5 10 2 6 1 11-2 9-4 8-6 7-10 6-13 4-14 2h-18l-22-3-14-4-12-5-11-8-9-9-11-20-4-1-6 5-11 17-3 5 1 6 4 13v17l-1 5 31-3h15l18 2 12 3 12 6 9 7 7 10 2 6v17l-4 9-4 6-7 8-14 9-14 5-18 4-9 1h-10l13 13 5 10 1 10-3 10-7 12-7 8-15 10-19 8-18 5-26 4h-29l-16-3-17-3-4 1-5 10-9 29-2 6 21-7 15-3h22l12 3 16 8 7 5 3 1 1-5 7-13 8-9 10-4h15l10 4 11 8 8 8 10 13 8 16 6 17 4 23 1 1 11-1 25-12 6-4-2-5-8-16-6-15-5-21-2-18v-10l3-21 6-16 7-9 8-7 8-3h14l9 4 7 5 9 12 7 16 4 17 2 22v17l-2 12 12-6 20-14 5-4h2l-4-10-7-14-6-16-5-23-2-17v-25l3-23 5-16 5-10 7-7 8-4 3-1h11l10 5 8 7 8 13 5 12 3 14 1 8v48l-1 17 11-8 16-13 1-4-8-16-8-17-6-18-2-9-1-21 2-17 4-14 8-15 8-10 9-7 12-5 12-1 9 2 10 6 6 7 6 13 2 8v34l-2 17 4-2 5-17 12-23 12-17 9-11 11-12 13-11 14-9 11-4h12l10 5 6 7 4 9 1 4v18l-4 17-5 13-6 11-10 13-9 10-17 13-11 7-17 9-21 8-16 6-4 4 16-2 13-2 12-1h15l22 2 17 4 16 8 10 9 5 10 1 8-2 9-6 9-9 7-11 5-15 4-8 1h-47l-39-3-26-4-17-5-4 2-8 8-3 5h18l31 3 21 5 16 8 9 7 8 9 4 8 1 4v11l-4 11-9 10-10 5-17 4h-19l-19-3-21-6-19-8-18-10-14-10-9-7-5 2-20 16v1l26 5 14 5 14 8 10 9 6 10 2 5v17l-6 12-9 9-12 6-15 4-16 2-8-1-14-3-12-3-21-9-6-4-8-6-6-4-5-5-8-7-4-1-12 5-1 1v5l8 3 13 5 12 9 7 8 8 14 3 9v20l-5 10-5 5-6 5-8 3-18 2h-7l-11-4-17-7-11-7-9-7v-2h-2l-6-7-8-13-4-9-3-4-4-1-12 3-8-1-10 2-27 8-47 10-22 4h-12l-6-7v-5l5-6 19-8 44-17 16-8 4-3-1-4-7-14-5-13v-4l-29-2-14 6-24 5-21 3h-6v8l-3 7-6 5-12 4-6 7v-3l7-9 5-8 4-10 2-9v-21l-4-13-6-10-2-1v-2l-4-2-7-2h-15l-12 3-12 7-5 5h-2v2h-2l-2 4-8 11-7 13h-3l-8-19-6-18-2-8v-10l15-9 16-12 6-5h2v-2l8-7 4-2 2-4 8-8 10-13 5-9 4-6 3-9h3l1 13 4-4 3-7-1-7-4-3-5-1-2-13-7-14-10-7-4-1-13-1v-33l1-2h2l1-3 8-6 16-15 7-8 8-12 4-10 1-4v-14l-4-10-5-6v-2l-5-2-7-3-12-1-12 3-12 5-10 5-13 8h-5l-8-13-2-6-1-2v-8l3-18 3-24 1-13 2-7 4-3 10-1 14 5 11 6 11 8 10 9 12 12 5 6 2-3 10-30v-5l-20-9-11-7-10-9-10-10-9-13-9-17-5-17-3-19v-9l3-15 6-11 8-8 10-4h16l11 4 12 7 12 11 8 8 11 15 12 19 2-2 11-27 2-7-6-8-11-13-12-17-13-21-11-21-8-21-5-16-2-12 1-12 4-9 5-7 7-4 5-1 14 1 16 8 13 10 14 14 10 14 10 19 6 15 3-4 14-26 8-14 3-10-8-14-5-11-6-19-4-20-3-24-1-15v-17l2-17 4-15 6-11 7-7 10-4h10l10 4 11 9 10 12 8 15 8 23 1 7h2l2-6 10-17 13-19 10-13 12-14 11-12 15-14 15-11 12-5zm-200 371-4 7-4 13 6-1 21-10-1-2-12-5zm36 100-6 4 4 16 4 13 4-1 7-7 4-6v-5l-10-13-1-1zm-97 79m-1 1 1 3zm20 68-3 2 2 4 4-1 1-3zm48 2-9 6-6 9-13 27-5 12v3l4-1 19-9 20-7 22-6 13-3-4-4-15-8-10-8-11-11z" fill="#72A26B"/>
<path transform="translate(1427,1179)" d="m0 0 6 2 8 8 3 2v2l5 2 6 5 5 4 20 9 13 4 11 3 10 2h7l1 4 5 8 4 13v13l-3 12-8 15-10 13-4 5-5 16-6 23-6 7-8 5-10 4-24 12-13 5-12 5-18 6-10 4-22 7-24 6-18 5-14 4-19 3-25 5-42 7-44 6-52 5-43 3-21 1h-67l-7-1h-23l-14 2-16 5-14 6-9 6-9 7h-2v2l-8 7-13 13-5 8h-2l-2 5-5 7-8 17-5 15v5l-3 1v8l-2 13 3 29 1 16-2 2h-5l-11-5-20-8-24-10-10-4-13-6-20-8-14-6-14-7-7-4-12-42-17-60-20-71-10-36-8-31-4-17-11-15-8-15-3-11v-13l4-13 8-11 11-11 15-11 10-6 3-1v3l8 1 19 8 10 3-2 5-4 4h-2l-3 9v15l6 12 9 10 14 10 18 10 17 7 40 13 32 8 25 5 46 7 40 5 49 4 43 2h77l48-2 49-4 48-6 41-7 40-9 25-7 25-8 21-9 24-3 10-4 6-5 6-10 1-3v-20l-5-13-6-10-3-3v-2l-3-1v-2l-4-2-8-6-16-6-5-2-1-1v-5l8-5z" fill="#E6B268"/>
<path transform="translate(1009,1681)" d="m0 0 6 1 23 10 20 8 12 5 11 4v2l7 1 9 4v2l7 1v2l9 2 7 3 3 1v2l5 1 44 19 10 4 6 1h13l12-3 19-7 13-6 12-5 37-16 24-10 8-4 20-8 12-5h11l24 10 3 2h8l-2 11-39 156-11 46-4 11-4 6-8 8-1-4-9 2-21 8-18 6-25 7-30 6-18 3-20 2-30 2h-38l-36-3-34-5-24-5-36-10-24-8-15-6-6-3-3-6-7-23-6-19-3-12-7-23-10-33-2-8-5-16-6-18-10-34v-7l5-4 42-18 22-9 11-5 27-11z" fill="#FCD284"/>
<path transform="translate(1027,682)" d="m0 0h11l7 3 7 7 6 13 5 19 4 29 1 12 12 1v2l-6 2-3 3-2 18-5 37-1 5v8l2 3-1 3-4-6h-2l-7 14-8 9-10 5h-2l1 31 2 2 32-32 5-4 2-4 9-3 9-6 14-7 14-5 7-1 11 1 9 4 5 5 5 6 3 9v14l-3 10-6 10-9 12-12 12-8 7-7 5-1 2h-2v9h-1l-1-7-10 5-29 19-14 9h-2l-3 14-8 27v9l4-1 13-15 18-18 10-7 20-10 2-4v5h13l7 3 8 6 7 14 2 13 6 1 4 5-1 8-5 8h-2l-1-2-1-11-2 1-3 10-6 9-7 11-14 15-12 12h-2v2l-17 13-4 3-11 7-5 3h-2l2 13 4 14 9 24 3 4 8-15 10-13h2v-2l8-7 11-6 12-3h15l8 3 3 2v2l3 1 6 10 4 13v21l-4 15-6 11-7 8-5 8-9 8-13 9-7 4h-2l8 11 14 15 10 10 8 7 11 12 2 6 2 10 2 4-1 4-3 1h-8l-14-3-14-7-11-8-10-9-16-16-11-14-8-11-3-1-27-3-34-6v-2l-9-1-28-7-21-7-12-6-9-7-6-10v-10l10-14 5-3 4-2 17-3 24-1 21 3 23 4h4l-1-7-9-27-3-11h-16l-15-2-18-4-12-4-12-5-14-7-3-2-5 1h-3l4-5-7-8-13-11-7-5-9-2 3-2-1-5-6-8-8-13-6-12-2-9v-13l4-9 7-6 10-4 8-1 16 1 23 7 20 8 11 6 8 3 14 9 6 4 4 1-2-22-2-18-1-2-16-4-17-6-4-2-6-1v2l-4 1-3-2v-6l-5-2-16-10-13-10-14-14-8-9-8-13-5-12-2-9v-8l4-15 6-9 8-7 8-5 6-2 1-6 2 3 1 2 7-1 5-6 16-24 9-11 14-14 14-10 8-5 3-10 6-29 6-16 7-13 8-9zm122 328v12l4 1 3-7-3-5z" fill="#8CBD83"/>
<path transform="translate(1439,304)" d="m0 0h10l9 3 8 7 4 9 1 4v19l-5 16-9 17-8 11-11 13-14 13-11 9-12 10h-2v2l15-4 25-4h27l10 3 6 4 5 6 2 4v9l-5 10-9 8-11 7-19 9-20 7-24 7-30 7-26 4-12 1h-21l-2 5-30 60-7 17 15-9 16-9 19-8 19-5 13-2h28l15 4 13 7 8 8 5 10 1 4v13l-4 12-10 14-7 7-11 8-15 9-16 8h-7l-3-1-7-8-3-3v-2l-3-1v-2l-4-2-5-3-8-3h-15l-6 2-5 2-7 6h-2l-2 5-4 6-4 13-3 16-1 10v32l2 21 3 11v6l-5 4h-5v-2h-2l-2-6h-2l-6-9-1-3h-2l-4-4v-2l-12-6-11-2-15 2-9 5-9 10-8 17-4 17-2 21-1 34-1 4h-2l-1 4-1 9 5-2 2-1 9 25 6 12 1 3h2l2 4 3 3 1 7-2 4h-10l-7-11-6-11-8-13-7-9-3-6-2-11-6-12-10-6-10-3-15 1-18 6-16 9-7 5h-4l-5-6-3-5-2-6-1-2v-8l3-18 3-24 1-13 2-7 4-3 10-1 14 5 11 6 11 8 10 9 12 12 5 6 2-3 10-30v-5l-20-9-11-7-10-9-10-10-9-13-9-17-5-17-3-19v-9l3-15 6-11 8-8 10-4h16l11 4 12 7 12 11 8 8 11 15 12 19 2-2 11-27 2-7-6-8-11-13-12-17-13-21-11-21-8-21-5-16-2-12 1-12 4-9 5-7 7-4 5-1 14 1 16 8 13 10 14 14 10 14 10 19 6 15 3-4 14-26 8-14 3-10-8-14-5-11-6-19-4-20-3-24-1-15v-17l2-17 4-15 6-11 7-7 10-4h10l10 4 11 9 10 12 8 15 8 23 1 7h2l2-6 10-17 13-19 10-13 12-14 11-12 15-14 15-11 12-5zm-200 371-4 7-4 13 6-1 21-10-1-2-12-5z" fill="#54844E"/>
<path transform="translate(1013,1556)" d="m0 0 9 3 42 18 88 38 25 11 13 4h12l17-5 15-6 11-5 12-4 13-6 16-7 21-9 18-8 16-6 11-5 12-5h7l16 7 21 8 18 8 7 1-3 15-11 44-14 54-5 2-6-1-10-5-15-6h-11l-12 5-10 4-12 5-11 5-12 5-30 13-14 6-12 5-16 7-16 6-12 3h-13l-8-2-29-12-23-10-5-2v-2l-9-2-7-3-3-1v-2l-7-1v-2l-5-1-11-4v-2l-9-2-9-4-44-18-6-3-6 1-17 8-20 8-16 7-24 10-35 15-6 2-1-9-4-11-7-23-4-17v-4l-3-6-5-18-4-18v-6l4-4 24-8 11-5 13-5 12-5 9-4 17-7 11-5 26-11z" fill="#DCAD7D"/>
<path transform="translate(1243,1157)" d="m0 0 26 2 3 1 6 17 7 14 1 4-5 4-12 6-27 11-31 12-10 5-3 4v5l5 6h12l42-8 30-7 27-8 8-1 8 1 12-3 5 3 5 9 6 11 4 6v2l4 2v2h2v2l4 2 11 8 14 7 17 6 3 3-23 10-40 12-34 8-36 7-41 6-37 4-38 3-48 2h-77l-58-3-43-4-52-7-37-6-34-8-30-9-29-10-17-8-16-10-11-9-7-8-6-12v-15l3-7 1-2h2l1-3 5-5 20 1 9 1 34 1 18-1 19-2 7-2 12 7 17 11 16 9 24 11 30 10 17 4 31 5 9 1h28l18-4 7-4 1-7h-2v-2l-5-2-12-6-21-6-47-10-30-8-22-9-21-11-11-7-14-10-9-7-2-3 2-2 18-4 49-7h19l10 7-1 5-4 6-1 4v8l5 10 7 6 14 8 24 8 26 6 21 4 30 5 20 2 4 2 9 12 8 10 9 10 6 7 8 7 12 9 12 7 12 4 7 1h8l3-1-1-5-2-5-2-11-9-11-8-8-8-7-14-14-9-11-3-4v-2l14-8 9-7 8-7 9-10 12-4 6-5 2-6 1-8 33-5 18-4z" fill="#8E5B3A"/>
<path transform="translate(1493,1345)" d="m0 0 1 3-45 180h-2l-3-3-10-4-19-7-11-5-21-8-13-4h-12l-24 10-15 7-19 8-53 23-10 4-36 15-9-1-27-12-38-16-70-30-28-11-9-3h-12l-15 5-28 12-34 14-9 4-26 11-18 8-11 4h-5l-2-5 3-10 7-17 7-12 4-6h2l2-5 9-10 13-13h2v-2l12-9 10-6 20-8 12-3 10-1h23l7 1h67l50-3 47-4 42-5 46-7 8-2 13-2 21-4 15-2 30-8 14-4 22-6 25-8 12-5 13-4 13-6 12-5 24-12 7-3 7-5z" fill="#FDD284"/>
<path transform="translate(1008,1490)" d="m0 0h12l25 9 63 27 57 24 30 13h6l29-12 13-6 13-5 32-14 21-9 15-6 15-7 19-8h12l13 4 21 8 19 8 15 5 9 5 1 6-14 54-1 2h-7l-11-5-19-8-16-6-9-4h-7l-31 13-15 6-11 5-23 10-14 6-16 7-12 4-11 5-21 8-8 2h-12l-13-4-36-16-33-14-39-17-49-21-7-2-27 12-28 12-17 7-8 4-14 5-10 5-16 6-15 6-15 5-1 2 1 10 3 14 6 21 3 3-3 2-5 1h-13l-12-5-16-6-11-5-17-7-13-6-11-4-9-4-10-3-6-3h-6v4h-2l-12-43-8-28 1-3 10 6 14 6 38 16 9 4 1 2 7 1 12 5 19 8 20 8 3 1 4-1v-7l-1-9-3-29 2-13v-9h10l25-10 13-6 25-10 13-6 55-23z" fill="#DCAD7D"/>
<path transform="translate(1427,1179)" d="m0 0 6 2 8 8 3 2v2l5 2 6 5 5 4 20 9 13 4 11 3 10 2h7l1 4 5 8 4 13v13l-3 12-8 15-10 13-4 5-5 16-3 12-2-1v-3l-11 1-4 2v-2l-10 4-16 9-12 5-20 7-14 5-12 5-7 1v-2l-14 1-31 4-31 5-35 5-60 5-44 2h-67l-27-1-51-4-43-5-39-6-25-5-30-7-14-4-30-10-17-6-18-8-6-3-12-8-10-7-7-6v-2h-2l-1-4 7-1 9 3 30 9 24 6 26 4 62 8 28 2 38 3 43 2h77l48-2 49-4 48-6 41-7 40-9 25-7 25-8 21-9 24-3 10-4 6-5 6-10 1-3v-20l-5-13-6-10-3-3v-2l-3-1v-2l-4-2-8-6-16-6-5-2-1-1v-5l8-5z" fill="#DBAC7D"/>
<path transform="translate(1013,1556)" d="m0 0 9 3 42 18 88 38 25 11 13 4h12l17-5 15-6 11-5 12-4 13-6 16-7 21-9 18-8 16-6 11-5 12-5h7l16 7 21 8 18 8 7 1-3 15-10 40h-2l-1-3-16-6-11-4-12-5-12-3h-11l-15 6-18 8-13 6-13 5-8 4-19 8-22 9-27 12-20 8h-9l-34-14-44-19-47-20-24-10-19-7-12-3-10 2-26 10-21 9-11 5-18 7-12 6-20 8-13 6-5 1-4-3-4-13-2-8-4-18v-6l4-4 24-8 11-5 13-5 12-5 9-4 17-7 11-5 26-11z" fill="#FDD284"/>
<path transform="translate(676,1195)" d="m0 0h2v3l8 1 19 8 10 3-2 5-4 4h-2l-3 9v15l6 12 9 10 14 10 18 10 17 7 40 13 32 8 25 5 46 7 31 4v1l-16-1-69-9-23-5-29-8-13-4-9-3h-5l-1 4h2l5 5 7 6 16 10 2 2 10 4 15 7 18 6 22 7 16 5 15 4 32 7 36 6 38 5 43 4 27 2 27 1h67l44-2 50-4 33-4 30-5 36-5 16-2h6v3l-10 4-39 10-10 3-18 4-12 2-53 8-42 5-41 3-52 2h-86l-37-2-43-4-55-7-22-3-29-5-28-7-31-8-45-15-12-5-11-5-16-8-16-9-16-11-5-3-5-5-6-9-5-5-7-9-8-15-3-11v-13l4-13 8-11 11-11 15-11 10-6z" fill="#C49363"/>
<path transform="translate(820,1211)" d="m0 0 6 2 15 10 17 10 13 7 2 3-7 6-5 2v2h-2l-1 3-5 5-10 12-2 9 4 10 3 5 2 1 4 7 5 4 13 6 2 1v2h-8l-28-6-28-7-37-12-24-10-14-8-10-7-11-10-6-9-3-7v-11l3-9 7-8 2-1 13 1 31 2h24l22-2 12-2z" fill="#75462B"/>
<path transform="translate(705,1484)" d="m0 0 14 5 12 5 14 5 15 7 24 10 21 9 16 6 11 5 13 5 12 6 1 2v8l-2 13 3 29 1 16-2 2h-5l-11-5-20-8-24-10-10-4-13-6-20-8-14-6-14-7-7-4-12-42-8-29 1-3z" fill="#C49363"/>
<path transform="translate(742,1628)" d="m0 0h7l11 5 13 4 3 2 9 3 16 7 53 22h18l2 2 5 20 6 20 5 14-2 7-2 2-18 6h-12l-10-2-13-5-10-5-13-5-11-5-13-5-8-3-5-3-5-2-6-5-4-8-15-54-1-8z" fill="#C49363"/>
<path transform="translate(930,1093)" d="m0 0 6 1 9 5 13 6 17 6 22 5 19 1 8 1 4 11 10 30-1 5-10-1-17-3-21-3-25 1-16 3-8 4-10 14v10l6 10 11 8 20 8 25 7 22 5v1l-10-1-26-6-24-8-11-6-8-6-6-8-2-5v-8l3-7 3-5-1-4-8-5h-19l-35 5-19 3-13 3-4 1-6-3-12-8-3-5v-3l4-2 28-5 40-6 24-2v-11l2-11 6-11 8-8z" fill="#73A16B"/>
<path transform="translate(1427,1179)" d="m0 0 6 2 8 8 3 2v2l5 2 6 5 5 4 20 9 13 4 11 3 10 2h7l1 4 5 8 4 13v13l-3 12-8 15-9 12-7 4-22 3-21 1-24-1-28-5-8-2h-11l-21 6-16 5-17 4-9 2-19 3-13 1v-1l39-8 27-7 33-10 23-10 24-3 10-4 6-5 6-10 1-3v-20l-5-13-6-10-3-3v-2l-3-1v-2l-4-2-8-6-16-6-5-2-1-1v-5l8-5z" fill="#C49363"/>
<path transform="translate(721,1559)" d="m0 0 20 10 19 8 15 6 13 6 6 2v2l7 1 12 5 19 8 20 8 3 1v2h5l2 1v8l4 18 6 21 3 3-3 2-5 1h-13l-12-5-16-6-11-5-17-7-13-6-11-4-9-4-10-3-6-3h-6v4h-2l-12-43-8-28z" fill="#E6B268"/>
<path transform="translate(984,769)" d="m0 0 5 2 1 23 3 19 3 12 4 8 4 6 2 5 1 9-3 19-3 3-5-2-1-3h-2l-1-4h-2v-2l-4-2-14-11-15-9-15-6-10-2-3-3 1-5 4-6 3-7 9-13 4-5 5-3 12-12 13-9z" fill="#72A26B"/>
<path transform="translate(1243,1157)" d="m0 0 26 2 3 1 6 17 7 14 1 4-5 4-12 6-11 2-6-2-22-3-13-3-17-3-27-3 1-4 3-9 1-8 33-5 18-4z" fill="#75462B"/>
<path transform="translate(1338,1226)" d="m0 0h5l4 4 9 17 12 13 11 9 15 8 16 5 3 3-9 4-28 10-9 3h-3v2l-26 7-23 5h-11l5-4 14-7v-3h2l9-18 1-10-1-13h-2l-1-9-7-14-6-8v-2l4-1h12z" fill="#75462B"/>
<path transform="translate(914,1160)" d="m0 0h9l8 5 1 3-4 6-2 5v8l4 9 7 8 9 6v2l-9 3-5 2-1 2-16-3-20-8-10-6-12-6-12-8-10-7-2-1v-2l-5-2-3-3v-2l6-2 26-4 21-3z" fill="#75462B"/>
<path transform="translate(905,1137)" d="m0 0 5 1 7 12 5 6v2l-26 2-45 7-13 3-4 1-6-3-12-8-3-5v-3l4-2 28-5 40-6z" fill="#C49363"/>
<path transform="translate(820,1209)" d="m0 0 6 2 17 11 25 15-2 1-19-10-9-6-13-9-5-1-6 2-16 2-19 1h-18l-31-2-13-1-8 8-3 9v11l6 12 9 10 11 8 17 10 18 8 43 14 31 8 31 6v1l-13-1-36-8-31-9-32-11-17-8-16-10-11-9-7-8-6-12v-15l3-7 1-2h2l1-3 5-5 20 1 9 1 34 1 18-1 19-2z" fill="#8F5C3B"/>
<path transform="translate(1294,836)" d="m0 0 5 1 2 6v20l-3 7-12 5-6-1-4-2-1-5 4-11 7-11 6-8z" fill="#54844E"/>
<path transform="translate(905,1158)" d="m0 0h19l10 7-1 5-4 6-1 4v8l5 10 8 7-2 1-8-7-4-6-2-6v-8l6-12-3-3-5-3h-9l-29 3-25 4-13 2-6 1 4 5 4 2v2l5 2 16 11 11 6 14 8 14 6 10 4-4 1-22-9-21-11-11-7-14-10-9-7-2-3 2-2 18-4z" fill="#8F5C3B"/>
<path transform="translate(905,1137)" d="m0 0 4 1v2l-14 2-14 1-5 2-30 4-7 1-11 3-6 3-6-1v-2l-2-1 3-2 28-5 40-6z" fill="#DFB182"/>
<path transform="translate(1243,1157)" d="m0 0 26 2 3 1 6 17 7 14 1 4-2 1-3-7-4-8-8-18-21-3h-5l-11 5-6 2-20 4-26 3-1 5h-1v-7l33-5 18-4z" fill="#8F5C3B"/>
<path transform="translate(1071,766)" d="m0 0h9v2l-6 2-3 3-2 18-5 37-1 5v8l2 3-1 3-5-10 2-15 3-17 2-31 2-7z" fill="#72A26B"/>
<path transform="translate(1263,1144)" d="m0 0 5 2 3 10v4l-23-2-3-2 5-4 8-5z" fill="#C49363"/>
<path transform="translate(819,1208)" d="m0 0h5l10 7h-3l-9-5-7 2-19 2-20 1-32-1-9-1v-1h43l26-2z" fill="#54844E"/>
<path transform="translate(1045,979)" d="m0 0 5 1-2 16h-2l-2 5-4-1-2-5v-9l2-3h2v-2z" fill="#72A26B"/>
<path transform="translate(825,1923)" d="m0 0 3 3 6 7v2l4 2 11 9 15 10 13 8 13 6 12 5v2l-9-3-14-6-20-12-14-10-11-9-8-10z" fill="#FDD285"/>
<path transform="translate(1465,1059)" d="m0 0h1l1 15v17l-2 12 12-6 20-14 4-2v2l-4 3h-2v2l-11 7-10 7-6 4-4-1-1-1 1-7z" fill="#94C28C"/>
<path transform="translate(909,955)" d="m0 0 3 4 2 5-1 5-8-1-9-3-12-2h-19l-15 4-6 2 3-3 11-4 5-1h25l18 4 4 1z" fill="#8EBF85"/>
<path transform="translate(1403,1141)" d="m0 0 2 1-10 7-5 1v2h-3v2l-7 3-7 2h-8l-4-2-1-8 2 1 2 6 11-1 25-12z" fill="#91C088"/>
<path transform="translate(1403,1279)" d="m0 0 11 3 3 3-23 10-26 8-4-1 32-11 16-6-2-2-7-2z" fill="#8F5C3B"/>
<path transform="translate(801,803)" d="m0 0 4 1 2 1v2l-10 2-17 1-7 3-11 4-2-1 12-6 12-3 8-1h10z" fill="#8FC087"/>
<path transform="translate(1360,1248)" d="m0 0 7 6 5 4v2l4 2 10 7 15 7 15 5v3l-11-4-17-7-11-7-9-7v-2h-2l-6-7z" fill="#54844E"/>
<path transform="translate(912,575)" d="m0 0 1 3-6 9-8 14-6 12-3 1-2-8v-14h1l2 16 2 1 2-5 8-15z" fill="#8CBE83"/>
<path transform="translate(889,1319)" d="m0 0 26 3 7 1 2 1 7 1 1 2-21-1v-2l-11-1-11-2z" fill="#77472C"/>
<path transform="translate(1583,1016)" d="m0 0v3l-11 10h-2v2l-6 4-7 5-3-1 1-11h1v9l11-8z" fill="#8FBF86"/>
<path transform="translate(1690,992)" d="m0 0h15l15 1v2h-48v-1z" fill="#92C189"/>
<path transform="translate(777,526)" d="m0 0h9l13 4-4 1-8-2h-15l-10 4-8 5-5 3 2-4 9-6 11-4z" fill="#93C28B"/>
<path transform="translate(1282,949)" d="m0 0 14 6-1 3-12 2-8 1-4 2-6-1 4-2 20-5-7-4z" fill="#92C189"/>
<path transform="translate(750,1133)" d="m0 0 2 2-1 4-12 1-2-1-14 2h-8v-1l18-3 8-1h9z" fill="#91C189"/>
<path transform="translate(1302,580)" d="m0 0 2 1-13 8-9 6-8 6-3-1 1-5 1 2 15-9z" fill="#77A870"/>
<path transform="translate(1407,321)" d="m0 0 2 1-30 30-2-1 16-17z" fill="#6D9E66"/>
<path transform="translate(676,1195)" d="m0 0h2v4l-5 1v2l-6 3-4 1v2l-7 4-4 1 5-5 11-8z" fill="#DFB07E"/>
<path transform="translate(716,996)" d="m0 0h1v17l-1 16-1 2-4-2-6-7 1-2 6 7 1-1z" fill="#90C087"/>
<path transform="translate(617,864)" d="m0 0 4 4 7 11v2l3-3 5-10 1 3-6 15-4-2-8-15z" fill="#93C28B"/>
<path transform="translate(818 1e3)" d="m0 0h1l-1 10-3 3-5 2-2 2-9 3h-6l-1-3 2-4v6l16-7 5-2z" fill="#90C088"/>
<path transform="translate(1519,1222)" d="m0 0 2 1 8 16 2 8v13l-2-2v-7l-4-14-4-8-3-5z" fill="#DBB689"/>
<path transform="translate(1346,393)" d="m0 0 1 3-10 17-3 8h-3l-1-3v-9h1l1 7h2l2-6z" fill="#7BAC74"/>
<path transform="translate(869,1196)" d="m0 0 5 2 23 12 13 5-4 1-18-7-4-3-11-6z" fill="#54844E"/>
<path transform="translate(929,388)" d="m0 0 2 1-13 10-6 5-5 5-4 1-1-1v-9h1v8l8-6 12-10z" fill="#91C088"/>
<path transform="translate(861,548)" d="m0 0h1v45h-3l-2-5 3-1z" fill="#8FC086"/>
<path transform="translate(928,1177)" d="m0 0h1l1 12 6 10 10 7-3 1-8-6-6-8-2-5v-8z" fill="#7BA06A"/>
<path transform="translate(674,817)" d="m0 0h2v2l-9 5-9 9-8 11-2 1 2-5 9-11 8-8z" fill="#8DBF85"/>
<path transform="translate(1177,850)" d="m0 0h3l1 2v6l-5 7-2-1v-6l3-3-1-2z" fill="#97C48F"/>
<path transform="translate(862,675)" d="m0 0 2 1 1 31-4 1-8-7h3l7 5z" fill="#8FBF86"/>
<path transform="translate(1500,1081)" d="m0 0 1 2-4 3h-2v2l-11 7-10 7-2-1 9-7 16-11z" fill="#8CBE83"/>
<path transform="translate(1596,865)" d="m0 0h2v2l-10 5-6 6h-2l-2 4-5 5 2-5 9-10z" fill="#8EBF85"/>
<path transform="translate(874,1963)" d="m0 0 12 5 13 6 3 1v2l-9-3-14-6-5-3z" fill="#FDD388"/>
<path transform="translate(1155,1014)" d="m0 0h2l-1 8-5 8h-2l-1-7 5-1 2-6z" fill="#99C591"/>
<path transform="translate(1137,802)" d="m0 0 6 5 5 6 4-6 1 3-2 5-4 1-7-8-3-4z" fill="#7DAD76"/>
<path transform="translate(888,592)" d="m0 0h1l2 16 2 1v-2h2l-2 6-3 1-2-8z" fill="#93C28A"/>
<path transform="translate(750,384)" d="m0 0 3 1-10 4-11 8-2 3-2-1 5-6 9-6z" fill="#90C088"/>
<path transform="translate(1415,998)" d="m0 0h8v1l-9 2-7 3-8 7-3 2 2-4 9-8z" fill="#88BA7F"/>
<path transform="translate(1701,865)" d="m0 0v3l-15 15-2-1 15-16z" fill="#87B77F"/>
<path transform="translate(779,808)" d="m0 0h5l-4 2-7 3-11 4-2-1 12-6z" fill="#8CBE83"/>
<path transform="translate(1168,1284)" d="m0 0 2 4 2 10 2 4-1 4-3-1-1-8-1-4z" fill="#809F69"/>
<path transform="translate(1251,562)" d="m0 0 1 3-6 12-4-1-2-5v-5l2 3 2 5 3-4z" fill="#7BAC74"/>
<path transform="translate(1401,432)" d="m0 0 2 1-4 2v2l10-3h5l-4 2-11 3h-4v-3z" fill="#7DAE75"/>
<path transform="translate(1426,308)" d="m0 0 3 1-14 9-3 3-3-1 10-8z" fill="#78A971"/>
<path transform="translate(847,819)" d="m0 0h18v1l-14 1 8 5-3 1-9-6z" fill="#8FBF86"/>
<path transform="translate(909,955)" d="m0 0 3 4 2 5-1 5-5-1-1-2h3z" fill="#A7CDA0"/>
<path transform="translate(648,1300)" d="m0 0 3 1 6 9v3l-6-3z" fill="#DFB282"/>
<path transform="translate(676,1195)" d="m0 0h2v4l-5 1v2l-5 2-1-2 3-3z" fill="#CFB385"/>
<path transform="translate(1228,974)" d="m0 0 2 1-5 3-8 5-5 1-1-4 1 2z" fill="#8FBF86"/>
<path transform="translate(1651,939)" d="m0 0h1v7l-4 5h-4l-1-5 2-4v7l4-2z" fill="#96C38D"/>
<path transform="translate(908,689)" d="m0 0v3l-7 9-5-1v-6h1l1 5 5-5z" fill="#8FBF86"/>
<path transform="translate(1379,688)" d="m0 0v3l-7 7-4 1-2-1-1-6 3 4 4-2z" fill="#8CBE83"/>
<path transform="translate(1257,1323)" d="m0 0h10l-2 2-7 1h-10l4-2z" fill="#7B4B2E"/>
<path transform="translate(1146,1204)" d="m0 0 3 1-7 7-6 4-2-1 5-5 3-1 2-3h2z" fill="#979B67"/>
<path transform="translate(767,1084)" d="m0 0h1v15l-1 1h-5l3-1z" fill="#93C28A"/>
<path transform="translate(1330,409)" d="m0 0h1l1 7h3l-1 5h-3l-1-3z" fill="#89B582"/>
<path transform="translate(1403,1141)" d="m0 0 2 1-10 7-5 1 4-4z" fill="#8CBE83"/>
<path transform="translate(1683,1105)" d="m0 0 3 1 3 9v11h-1l-2-14z" fill="#8CBE83"/>
<path transform="translate(1583,1016)" d="m0 0v3l-11 10-2-1 8-8z" fill="#8CBE83"/>
<path transform="translate(570,955)" d="m0 0 4 1 1 5-6 5-5 2 5-5 4-3-1-3z" fill="#8FC087"/>
<path transform="translate(1573,1024)" d="m0 0m-1 1m-1 1m-2 1 2 1-1 3-6 4-4 2 4-6z" fill="#94C28B"/>
<path transform="translate(1282,957)" d="m0 0m-5 1h5l-3 2-8 3-6-1 4-2z" fill="#8CBE83"/>
<path transform="translate(1279,593)" d="m0 0 2 1-4 5-5 2-1-3 2-3v2l5-3z" fill="#81B079"/>
<path transform="translate(853,700)" d="m0 0 4 2 6 4 1-3 1 4-4 1-8-7z" fill="#A1CA9A"/>
</svg>
