<?xml version="1.0" encoding="utf-8"?>
<!-- Generator: Adobe Illustrator 28.0.0, SVG Export Plug-In . SVG Version: 6.00 Build 0)  -->
<svg version="1.1" id="Camada_1" xmlns="http://www.w3.org/2000/svg" xmlns:xlink="http://www.w3.org/1999/xlink" x="0px" y="0px"
	 viewBox="0 0 754.3 569.6" style="enable-background:new 0 0 754.3 569.6;" xml:space="preserve">
<g>
	<path d="M22.7,175.5c0.8-3.3,1.7-6.6,2.5-9.9c10.3-42.2,46.2-71.2,89.6-71.7c29.3-0.4,58.6-0.1,87.9-0.1c2.5,0,5,0,7.9,0
		c3-14.9,8.6-28.1,17.8-39.7c17.4-21.9,39.7-35.8,67.8-36.2c53.3-0.9,106.6-0.8,159.8-0.2c40.2,0.5,76.1,30.1,86,69
		c0.6,2.2,1.2,4.4,1.8,6.8c6,0,11.7,0,18.5,0c0-4.2-0.1-8.2,0-12.3c0.3-10.1,5.2-15.8,15.1-16.1c16.1-0.4,32.3-0.4,48.4,0
		c8.8,0.2,12.7,4.8,13.1,13.7c0.2,4.8,0,9.6,0,14.7c17.8,0.9,34,5,48.5,14.3c27.5,17.7,43.5,43,43.7,75.8c0.7,93,0.7,186,0.1,278.9
		c-0.3,48.4-40.4,88-88.7,89.7c-2.8,0.1-5.5,0.2-8.3,0.2c-171.4,0-342.8-0.1-514.2,0.1c-33.2,0-60-12.2-80-38.9
		c-8.4-11.3-13.5-24-16-37.9c-0.3-1.8-0.9-3.5-1.4-5.3C22.7,372.1,22.7,273.8,22.7,175.5z M239.7,124.4c-3.3,0-5.8,0-8.3,0
		c-36.9,0-73.8-0.1-110.7,0.1c-6.6,0-13.5,0.5-19.8,2.2c-29.8,8.1-47.3,31.1-47.4,62.6c-0.1,89.3-0.1,178.6,0,267.9
		c0,5.9,0.7,12.1,2.3,17.7c8.3,29.4,31.3,46.6,62.5,46.7c172.6,0.1,345.1,0.1,517.7,0c37.6,0,64.6-26.3,64.7-63.7
		c0.4-89.8,0.2-179.5,0-269.3c0-21-8-38.5-25-51.5c-12.3-9.3-26.4-12.7-41.5-12.7c-37.4-0.1-74.7,0-112.1,0c-2.5,0-4.9,0-7.6,0
		c-0.2-2.6-0.3-4.4-0.5-6.2c-1-9.1-0.7-18.7-3.3-27.4c-7.9-26-31.4-42.5-59.8-42.7c-27.2-0.2-54.4-0.1-81.7-0.1
		c-21.9,0-43.8,0.1-65.7,0c-37.1-0.2-63.9,31-62.2,59.1C241.5,112.6,240.3,118.1,239.7,124.4z"/>
	<path d="M377.1,495.1c-95.4,0.1-173.7-78.1-174-174c-0.3-95.4,78.1-173.8,173.9-173.9c95.6-0.1,174,78.2,174,173.7
		C551.1,416.5,472.7,495,377.1,495.1z M521.9,321.2c0.2-79.5-64.9-144.7-144.8-144.8c-79.6-0.1-144.8,64.9-145,144.6
		C232,400.3,297.5,465.9,377,466C456.3,466.1,521.7,400.8,521.9,321.2z"/>
	<path d="M376.4,117.4c-29.1,0-58.1,0-87.2,0c-2.3,0-4.7,0.1-6.9-0.3c-5.6-1.1-9.1-4.5-9.4-10.3c-0.4-6,2.4-10.3,8.4-11.8
		c2.6-0.7,5.5-0.8,8.2-0.8c57.6,0,115.3,0,172.9,0c1.6,0,3.2-0.1,4.8,0.1c7.4,0.8,12.2,5.5,12.1,11.8c-0.1,6.7-5.1,11.3-13,11.3
		C436.3,117.5,406.4,117.4,376.4,117.4z"/>
	<path d="M383.5,207c2.3,0,4.6-0.2,6.9,0c5.3,0.4,8.5,3.3,8.9,8.7c0.3,5.4-2.3,9-7.6,9.8c-6.1,1-12.4,1.1-18.5,2.1
		c-49,7.9-85.7,49.2-87.6,98.6c-0.1,1.6,0,3.2-0.3,4.8c-1,5.7-4.2,9.4-10.3,8.9c-6-0.5-8.8-4.5-8.8-10.4
		c-0.1-15.4,3.1-30.1,8.5-44.5C291.7,240.9,336.2,208.9,383.5,207z"/>
</g>
</svg>
