<?xml version="1.0" encoding="utf-8"?>
<!-- Generator: Adobe Illustrator 28.0.0, SVG Export Plug-In . SVG Version: 6.00 Build 0)  -->
<svg version="1.1" id="Camada_1" xmlns="http://www.w3.org/2000/svg" xmlns:xlink="http://www.w3.org/1999/xlink" x="0px" y="0px"
	 viewBox="0 0 791.5 766.4" style="enable-background:new 0 0 791.5 766.4;" xml:space="preserve">
<g>
	<path d="M538.2,164.7c4.2-15.4,8-29.3,11.7-43.3c3.3-12.2,6.4-24.5,9.9-36.7c2.9-10.4,10.5-15.4,19.5-13.3c9.6,2.2,14.7,10.4,12,21
		c-10.3,39.5-20.8,78.8-31.6,118.2c-2.5,9.1-11,14.1-20,11.7c-39.7-10.4-79.4-21-119-31.9c-9.8-2.7-14.3-11.5-11.6-20.6
		c2.5-8.5,10.8-13.1,20.4-10.6c24.5,6.3,49,12.9,73.5,19.4c1.5,0.4,3.1,0.6,5.9,1.1c-2.6-4.5-4.6-8-6.6-11.5
		c-19.4-33.7-39.9-66.8-58-101.2c-15.7-29.8-52.5-30.4-69.5-0.3c-55.7,98.4-112.7,196-169.2,293.9c-1.5,2.6-2.9,5.3-4.7,7.7
		c-5.1,6.7-13.6,8.6-20.7,4.8c-7-3.8-10.3-12.1-7.6-19.9c0.9-2.6,2.4-4.9,3.8-7.3c57.1-98.9,114.1-197.7,171.2-296.5
		c29.6-51.2,94.1-51.1,123.8,0.2c20.6,35.5,41.1,71.1,61.7,106.7C534.5,158.6,535.9,160.9,538.2,164.7z"/>
	<path d="M573.2,670.1c6.4,6.3,12.9,12.5,19.3,18.9c12.7,12.7,25.5,25.2,38,38.1c7.3,7.6,7.2,17,0.4,23.6c-6.7,6.5-15.9,6.2-23.7-1
		c-2.4-2.3-4.7-4.7-7-7c-25.8-25.8-51.5-51.5-77.3-77.3c-9.3-9.4-9.4-18-0.2-27.2c27.9-28,55.8-55.9,83.7-83.7c8-8,17.3-8.6,24.2-2
		c7.3,6.9,7.2,16.5-1,24.8c-16.7,16.9-33.5,33.6-50.3,50.4c-2.1,2.1-4,4.3-6.9,7.4c4,0.2,6.6,0.5,9.2,0.5c41.1,0,82.2-0.2,123.4,0.1
		c15.7,0.1,28.2-4.9,36-18.9c7.6-13.7,5-26.7-2.6-39.9C682,479.6,625.8,382.1,569.6,284.7c-5.9-10.2-4-19.6,4.4-24.5
		c8.6-5,17.6-2,23.6,7.9c1.3,2.1,2.5,4.3,3.7,6.5c54.2,93.8,108.4,187.6,162.3,281.6c5.5,9.7,11.1,20.1,13.1,30.9
		c8.1,42.7-24,80.9-67.4,81.2c-41.9,0.3-83.9,0.1-125.9,0.1c-3,0-6,0-9.1,0C574,668.9,573.6,669.5,573.2,670.1z"/>
	<path d="M114.8,452.2c-26.8,7.5-51.7,14.5-76.6,21.2c-3.6,1-7.6,1.6-11.4,1.2c-7.3-0.8-12.8-7.3-13.4-14.7
		c-0.5-7.6,4.5-14.4,13-16.9c18.5-5.3,37.1-10.4,55.7-15.6c19.9-5.6,39.8-11.2,59.7-16.7c12-3.3,19.8,0.6,23.1,12.2
		c11,38.7,21.8,77.4,32.3,116.2c3.6,13.3-6,24-18.8,21.3c-7.4-1.5-10.9-6.8-12.8-13.6c-6.6-23.6-13.2-47.2-19.8-70.8
		c-0.6-2.1-1.3-4.2-2.2-6.9c-1.2,1.5-2.2,2.4-2.8,3.5c-20.7,35.8-41.5,71.5-62,107.5c-12.5,22-2,48,21.7,54.1
		c5,1.3,10.4,1.2,15.6,1.2c110.1,0.1,220.2,0,330.4,0.1c3.8,0,7.8,0,11.5,0.9c7.8,1.7,12.7,8.6,12.3,16.4
		c-0.4,7.7-6.1,14.1-13.9,15.2c-2.7,0.4-5.5,0.2-8.3,0.2c-111.5,0-223,0-334.5,0c-58.5,0-91-56.1-61.8-106.8
		c19.3-33.5,38.6-66.9,57.9-100.3C111.2,458.7,112.5,456.3,114.8,452.2z"/>
	<path d="M292.6,447.7c-0.1-20.8,7.1-39.6,16-57.7c24.2-49.4,57.3-92.8,92.8-134.4c7.6-8.9,18.2-8.9,25.8,0.1
		c35.3,41.4,68.2,84.6,92.4,133.7c30.3,61.7,12.9,126.9-42.6,161.2c-72.2,44.6-168.2,0.7-182-83.1
		C293.9,460.8,293.3,454.2,292.6,447.7z M415.1,291.7c-1.5,0.7-2.1,0.8-2.4,1.2c-29.2,36.4-57.1,73.6-77.3,116
		c-9,19-12.5,38.5-7.1,59.4c13.1,50.1,64.9,78.7,113.5,62.9c43.6-14.2,76-68.3,53.1-117.9c-14.9-32.3-34.4-61.5-55.4-89.9
		C431.6,312.5,423.2,302.1,415.1,291.7z"/>
	<path d="M415.1,509.3c-15.7-0.4-30.5-4.9-43.8-14.1c-9.3-6.4-11.7-16.3-6.2-24.2c5.5-7.8,14.7-9.1,24.1-3c17,11,33.8,11.9,50.8-0.4
		c8.3-6,18-4.2,23.3,3.4c5,7.1,3.4,16.7-4.2,22.7C446.3,503.8,431.8,509.1,415.1,509.3z"/>
</g>
</svg>
