<?xml version="1.0" encoding="utf-8"?>
<!-- Generator: Adobe Illustrator 28.0.0, SVG Export Plug-In . SVG Version: 6.00 Build 0)  -->
<svg version="1.1" id="Camada_1" xmlns="http://www.w3.org/2000/svg" xmlns:xlink="http://www.w3.org/1999/xlink" x="0px" y="0px"
	 viewBox="0 0 502.8 588.3" style="enable-background:new 0 0 502.8 588.3;" xml:space="preserve">
<g>
	<path d="M190.9,580.1c-10.4-1.8-20.9-3.2-31.2-5.5C86,557.8,27.1,494.8,14.1,420.4c-6.6-38.1-0.6-74.4,12.2-110.2
		c16.7-46.7,40.6-89.9,67.1-131.5C129.5,122.1,166.8,66.2,203.6,10c0.3-0.5,0.7-0.8,1.6-1.8c40.7,62,81.3,123.8,121.6,185.3
		c20.8-31.7,42-63.9,63.5-96.7c19.8,30.1,39.3,59.7,59.2,89.8c-4.8,3.1-9.3,5.9-14.2,8.9c-14.9-22.6-29.7-45.1-44.8-67.8
		c-1,1.2-1.8,2-2.3,2.9c-16.5,25.5-32.9,51-49.5,76.3c-2.2,3.3-1.9,5.8,0,9c19.2,33.5,37,67.7,48.2,104.7
		c5.1,16.8,7.5,34.4,11.1,51.7c0.3,1.4,0.5,2.9,0.8,4.8c10.9-0.5,20.8-3.9,30.2-8.7c33.2-17.1,57.6-58.6,39.5-106.4
		c-5.9-15.6-14-30.4-21.1-45.5c-1-2.2-2.3-4.2-3.7-6.7c4.8-2.8,9.2-5.4,13.5-7.9c0.6,0.2,1.1,0.3,1.2,0.6
		c13.8,23.5,26.2,47.6,31.4,74.7c10.3,53.6-29.8,109.1-84,116.3c-2.2,0.3-4.4,0.7-7.2,1.1c-2.7,46.5-19.2,87.4-50.6,122.3
		c-1.4-1.2-2.4-2-3.4-2.8c-2.9-2.6-5.7-5.3-8.9-8.2c2.6-3.2,5.1-6.1,7.4-9.2C370,462.8,383,424.1,381.8,381
		c-0.8-28.7-9.6-55.6-20.4-81.9c-19.2-46.7-44.7-89.9-72-132.1c-27-41.9-54.8-83.3-82.3-125c-0.6-0.9-1.3-1.8-2.3-3
		c-4.1,6.1-8,12-11.8,17.9c-31.8,49-64.3,97.6-95.3,147.2c-24.2,38.7-45.1,79.2-59.4,122.8C21.5,378.3,24.7,427.8,51.8,475
		c55.5,96.3,185.6,117.9,269.4,44.7c0.8-0.7,1.7-1.4,3.1-2.5c3.7,4,7.3,7.9,11.2,12.2c-11.3,10.5-23.5,19.2-36.7,26.5
		c-23.6,13.1-48.8,20.9-75.7,23.4c-1.4,0.1-2.9,0.6-4.3,0.9C209.5,580.1,200.2,580.1,190.9,580.1z"/>
	<path d="M335.8,282.2c13.7,30.3,26.6,60.9,28.8,94.5c3,44.5-10.7,84.1-41,116.8c-43,46.3-96.6,63.3-157.8,47.9
		C105.2,526,66.5,485.9,49.6,425.6c-9.1-32.5-5.8-64.8,5.6-96c7.7-21.1,17.3-41.5,26.2-62.1c1.5-3.4,3.6-6.5,5.6-9.6
		c15.7-23.9,37.6-32.7,64.6-23.5c15.7,5.3,30.5,13.6,45.4,21.1c20.1,10.1,39.6,21.4,60,30.8c17.6,8,36.5,10.9,55.6,5.4
		C320.4,289.3,327.7,285.5,335.8,282.2z M327.1,304.5c-32.9,13-63.3,4.7-92.9-9.7c-11.9-5.8-23.3-12.4-34.8-18.8
		c-17.1-9.4-33.5-20.2-52.4-25.8c-20.5-6-34.4-0.8-46.1,16.9c-2,3.1-4,6.3-5.5,9.7c-7.2,16.3-14.9,32.4-21.2,49.1
		c-10.2,26.9-15.7,54.5-10.9,83.6c10.1,61.6,61.6,111.9,122.7,119c65.9,7.6,126.7-27.7,151.6-87.5C357.2,394,347,349.4,327.1,304.5z
		"/>
	<path d="M253.2,154.4c-5.4,0-10.4,0-15.8,0c0-5.4,0-10.6,0-16.2c5.3,0,10.3,0,15.8,0C253.2,143.7,253.2,149,253.2,154.4z"/>
	<path d="M254,187.8c0-5.5,0-10.6,0-16c5.4,0,10.4,0,16,0c0,5.2,0,10.5,0,16C264.9,187.8,259.8,187.8,254,187.8z"/>
	<path d="M245.4,347c3.2,3,7,6.6,10.4,9.7c-31.5,31.5-62.8,62.8-94.3,94.4c-2.9-3.3-6.4-7.3-9.5-10.7
		C182.6,409.8,213.9,378.4,245.4,347z"/>
	<path d="M240.4,407.7c14,0,25.3,11.2,25.3,25.1c0,13.8-11.6,25.2-25.4,25.1c-13.7-0.1-24.8-11.2-24.9-24.9
		C215.3,418.9,226.3,407.8,240.4,407.7z M248.9,432.5c-0.2-4.6-4.2-8.2-8.9-7.9c-4.5,0.3-7.9,3.9-7.7,8.5c0.1,4.5,3.8,8.1,8.3,8
		C245,441.1,249,437,248.9,432.5z"/>
	<path d="M169.3,336.5c14,0,25.1,11.2,25.1,25.2c0,13.8-11,24.9-24.7,25.1c-13.9,0.2-25.4-11.1-25.5-24.9
		C144,348,155.4,336.5,169.3,336.5z M177.6,361.6c0-4.5-3.5-8.2-8-8.3c-4.6-0.2-8.7,3.8-8.7,8.3c0,4.6,4.1,8.5,8.7,8.3
		C174,369.8,177.6,366.1,177.6,361.6z"/>
</g>
</svg>
