<?xml version="1.0" encoding="utf-8"?>
<!-- Generator: Adobe Illustrator 28.0.0, SVG Export Plug-In . SVG Version: 6.00 Build 0)  -->
<svg version="1.1" id="Camada_1" xmlns="http://www.w3.org/2000/svg" xmlns:xlink="http://www.w3.org/1999/xlink" x="0px" y="0px"
	 viewBox="0 0 744.1 506.2" style="enable-background:new 0 0 744.1 506.2;" xml:space="preserve">
<g>
	<path d="M376,46.1C243.7,48.6,132.8,92.6,40.2,181.6c-1.3,1.2-2.5,2.5-3.9,3.7c-7.1,6.1-16,5.9-21.9-0.5c-5.6-6-5.8-15.2,0.8-21.3
		c15.8-14.5,31.3-29.3,48.2-42.5C136.7,64,219.8,29.3,312.1,19.4C472,2.4,610.7,49.7,727,161.3c7.3,7,8.8,14.4,4.8,21.1
		c-5.5,9.2-16.3,9.4-25.5,1.5c-18.9-16.4-37.2-33.6-57.3-48.2c-68.1-49.5-144.5-78-228.2-86.4C404.4,47.6,388.1,46.9,376,46.1z"/>
	<path d="M367.3,137.9c108.8,1.8,198.4,37.5,272.9,109.9c3.7,3.6,7.1,9.7,6.8,14.3c-0.3,4.5-4.7,10.1-8.9,12.8
		c-5.5,3.5-11.7,1.4-16.8-3.1c-11.2-10-22.2-20.4-34.1-29.6c-55.1-42.6-117.5-67-187.1-72c-104.4-7.4-194.8,25.3-271.3,96.5
		c-1.5,1.4-2.9,2.8-4.4,4.2c-7.7,7-16.9,7.3-23.1,0.7c-6.1-6.5-5.7-15.2,1.6-22.4c7.3-7.1,14.7-14.1,22.5-20.7
		c58.6-49.2,125.9-78.6,201.9-87.3C342.4,139.4,357.5,138.6,367.3,137.9z"/>
	<path d="M362.9,260.3c79.3,1.3,140,25.6,190.8,74.2c7.2,6.9,8.7,13.6,5,20.5c-5,9.2-15.9,10.4-24.7,3.1
		c-12.8-10.5-25-21.9-38.9-30.8c-88.9-56.9-204.1-45.6-281,27.1c-1.3,1.2-2.6,2.5-3.9,3.6c-7.7,6.7-16.3,6.7-22.5,0.1
		c-6-6.4-5.5-15.5,1.6-22.5c35.5-34.8,77.3-58.1,125.9-68.5C333.7,263.2,352.9,261.7,362.9,260.3z"/>
	<circle cx="372.1" cy="434.7" r="55.4"/>
</g>
</svg>
